# xmcd
#
# Track frame offsets:
#	150
#	21218
#	34761
#	59246
#	75709
#	103919
#
# Disc length: 1661 seconds
#
# Revision: 0
# Processed by: cddbd v1.5.1PL0 Copyright (c) Steve Scherf et al.
# Submitted via: dBpowerAMP V4.0
#
DISCID=4e067b06
DTITLE=Mojo and the boogieman - got mojo?
DYEAR=2004
DGENRE=Blues
TTITLE0=Hip Shaker - Mojo and the Boogieman
TTITLE1=Ain't Gonna Need You From Now On - Mojo and the Boogieman
TTITLE2=Natch'l Soul - Mojo and the Boogieman
TTITLE3=Better than the Rest (Natural Best) - Mojo and the Boogieman
TTITLE4=Gonna see my Baby - Mojo and the Boogieman
TTITLE5=Natch'l Soul - Mojo and the Boogieman w/ Larrry McCray
EXTD=
EXTT0=
EXTT1=
EXTT2=
EXTT3=
EXTT4=
EXTT5=
PLAYORDER=
